# xmcd CD database file
#
# Track frame offsets:
#	150
#	2400
#	28298
#	48514
#	72021
#	93121
#	116350
#	139447
#	155227
#	156176
#	178520
#	197630
#	221487
#	238068
#
# Disc length: 3486 seconds
#
# Revision: 0
# Processed by: cddbd v1.5.2PL0 Copyright (c) Steve Scherf et al.
# Submitted via: CDex 1.51
#
DISCID=be0d9c0e
DTITLE=Olaf Schönborns Q4 - Radio Jazz
DYEAR=1900
DGENRE=Jazz
TTITLE0=Radioblabla
TTITLE1=For Pat
TTITLE2=In The Bossa Mood
TTITLE3=Im Zug
TTITLE4=Mendoza Morgen
TTITLE5=Samba Concrete
TTITLE6=When Love Breaks Down
TTITLE7=Michael's Latin Blues
TTITLE8=Weather Forecast
TTITLE9=April
TTITLE10=Sonne im Mai
TTITLE11=Mein kleiner Antoine
TTITLE12=For Pat (Radio Edit)
TTITLE13=Im Zug (Remix)
EXTD=
EXTT0=
EXTT1=
EXTT2=
EXTT3=
EXTT4=
EXTT5=
EXTT6=
EXTT7=
EXTT8=
EXTT9=
EXTT10=
EXTT11=
EXTT12=
EXTT13=
PLAYORDER=
